<svg xmlns="http://www.w3.org/2000/svg" style="display:none">
  <!-- The Wanderer's Crossroads — 장소 문장(紋章) 세트
       사용법: <svg><use href="/assets/emblems.svg#emblem-{slug}"/></svg>
       스타일: 모노라인, stroke 2.5 / 48뷰박스, currentColor 상속 (문장색은 CSS에서 지정) -->

  <!-- 1. 역사가의 기록관 — 두루마리 -->
  <symbol id="emblem-historians-archive" viewBox="0 0 48 48">
    <g fill="none" stroke="currentColor" stroke-width="2.5" stroke-linecap="round" stroke-linejoin="round">
      <path d="M38 34 V10 a4 4 0 0 0 -4 -4 H8"/>
      <path d="M16 42 h24 a4 4 0 0 0 4 -4 v-2 a2 2 0 0 0 -2 -2 H22 a2 2 0 0 0 -2 2 v2 a4 4 0 1 1 -8 0 V10 a4 4 0 1 0 -8 0 v4 a2 2 0 0 0 2 2 h6"/>
      <path d="M31 15 h-11 M31 21 h-11 M28 27 h-8" stroke-width="1.6" opacity="0.65"/>
    </g>
  </symbol>

  <!-- 2. 수학자의 탑 — π가 새겨진 탑 -->
  <symbol id="emblem-mathematicians-tower" viewBox="0 0 48 48">
    <g fill="none" stroke="currentColor" stroke-width="2.5" stroke-linecap="round" stroke-linejoin="round">
      <path d="M14 12 V5.5 H19 V9 H21.5 V5.5 H26.5 V9 H29 V5.5 H34 V12 Z"/>
      <path d="M15.5 12 L13 38 M32.5 12 L35 38"/>
      <path d="M12 38 H36 M12 38 L9.5 42 M36 38 L38.5 42 M9.5 42 H38.5"/>
      <path d="M19.5 19 H28.5 M22 19 V27 M26 19 V27"/>
      <path d="M21 38 V34.5 a3 3 0 0 1 6 0 V38" stroke-width="1.6" opacity="0.7"/>
    </g>
  </symbol>

  <!-- 3. 연금술사의 연구실 — 플라스크 -->
  <symbol id="emblem-alchemists-laboratory" viewBox="0 0 48 48">
    <g fill="none" stroke="currentColor" stroke-width="2.5" stroke-linecap="round" stroke-linejoin="round">
      <path d="M20 6 v11 a11.5 11.5 0 1 0 8 0 V6"/>
      <path d="M16.5 6 h15"/>
      <path d="M14.2 29.5 C19 31.5 29 31.5 33.8 29.5" stroke-width="1.4" opacity="0.6"/>
      <circle cx="21.5" cy="26.5" r="1.7" fill="currentColor" stroke="none"/>
      <circle cx="26.5" cy="23" r="1.3" fill="currentColor" stroke="none"/>
    </g>
  </symbol>

  <!-- 4. 공학자 길드 — 톱니 -->
  <symbol id="emblem-engineers-guild" viewBox="0 0 48 48">
    <g fill="none" stroke="currentColor" stroke-width="2.5" stroke-linecap="round" stroke-linejoin="round">
      <circle cx="24" cy="24" r="11"/>
      <circle cx="24" cy="24" r="4.5"/>
      <path d="M24 13 V7.5 M24 35 V40.5 M13 24 H7.5 M35 24 H40.5"/>
      <path d="M31.8 16.2 L35.3 12.7 M16.2 16.2 L12.7 12.7 M31.8 31.8 L35.3 35.3 M16.2 31.8 L12.7 35.3"/>
    </g>
  </symbol>

  <!-- 5. 마법사의 도서관 — 펼친 주문서와 별빛 -->
  <symbol id="emblem-wizards-library" viewBox="0 0 48 48">
    <g fill="none" stroke="currentColor" stroke-width="2.5" stroke-linecap="round" stroke-linejoin="round">
      <path d="M24 16.5 C20 12 13.5 11 7 13 v25 c6.5 -2 13 -1 17 3.5 c4 -4.5 10.5 -5.5 17 -3.5 V13 c-6.5 -2 -13 -1 -17 3.5"/>
      <path d="M24 16.5 V41.5"/>
      <path d="M11 21.5 C14.5 20.2 17.8 20.2 21 21.8 M11 27.5 C14.5 26.2 17.8 26.2 21 27.8 M27 21.8 C30.2 20.2 33.5 20.2 37 21.5 M27 27.8 C30.2 26.2 33.5 26.2 37 27.5" stroke-width="1.4" opacity="0.55"/>
      <path d="M24 3 L25.5 7 L29.5 8.5 L25.5 10 L24 14 L22.5 10 L18.5 8.5 L22.5 7 Z" fill="currentColor" stroke="none"/>
    </g>
  </symbol>

  <!-- 6. 현자의 정원 — 세이지 새싹 -->
  <symbol id="emblem-sages-garden" viewBox="0 0 48 48">
    <g fill="none" stroke="currentColor" stroke-width="2.5" stroke-linecap="round" stroke-linejoin="round">
      <path d="M24 43 V24"/>
      <path d="M24 30 C24 21.5 17.5 16 8.5 16 c0 8.5 6.5 14 15.5 14"/>
      <path d="M24 24 c0 -8.5 6.5 -14 15.5 -14 c0 8.5 -6.5 14 -15.5 14"/>
    </g>
  </symbol>

  <!-- 7. 은혜의 예배당 — 십자가와 큰 후광 (전작 디자인 계승) -->
  <symbol id="emblem-chapel-of-grace" viewBox="0 0 48 48">
    <g fill="none" stroke="currentColor" stroke-width="2.5" stroke-linecap="round" stroke-linejoin="round">
      <circle cx="24" cy="22" r="15" stroke-width="1.7" opacity="0.4"/>
      <path d="M24 7 V39" stroke-width="3.2"/>
      <path d="M13 20 H35" stroke-width="3.2"/>
      <path d="M21.6 7 H26.4 M21.6 39 H26.4 M13 17.6 V22.4 M35 17.6 V22.4" stroke-width="2"/>
    </g>
  </symbol>

  <!-- 8. 광장 — 기둥 -->
  <symbol id="emblem-the-agora" viewBox="0 0 48 48">
    <g fill="none" stroke="currentColor" stroke-width="2.5" stroke-linecap="round" stroke-linejoin="round">
      <path d="M10 7.5 h28"/>
      <path d="M14 7.5 V13 h20 V7.5"/>
      <path d="M18 13 v22 M24 13 v22 M30 13 v22"/>
      <path d="M14 40.5 V35 h20 v5.5"/>
      <path d="M10 40.5 h28"/>
    </g>
  </symbol>

  <!-- 9. 작가의 집필실 — 깃펜 -->
  <symbol id="emblem-authors-den" viewBox="0 0 48 48">
    <g fill="none" stroke="currentColor" stroke-width="2.5" stroke-linecap="round" stroke-linejoin="round">
      <path d="M10 40 L14.5 32 C19.5 20.5 30 10 40.5 7.5 C41 19 32.5 31 19 35.8 Z"/>
      <path d="M10 40 C18.5 30.5 27 20.5 36 12.5"/>
    </g>
  </symbol>

  <!-- 10. 예술가의 작업실 — 팔레트 -->
  <symbol id="emblem-artists-atelier" viewBox="0 0 48 48">
    <g fill="none" stroke="currentColor" stroke-width="2.5" stroke-linecap="round" stroke-linejoin="round">
      <path d="M24 4 C13 4 4 13 4 24 s9 20 20 20 c1.85 0 3.3 -1.5 3.3 -3.4 c0 -0.87 -0.36 -1.67 -0.88 -2.25 c-0.52 -0.58 -0.87 -1.38 -0.87 -2.25 a3.33 3.33 0 0 1 3.33 -3.33 H33 c6.1 0 11 -4.9 11 -11 C44 12 35 4 24 4 Z"/>
      <circle cx="13" cy="17" r="2.2" fill="currentColor" stroke="none"/>
      <circle cx="19" cy="11" r="2.2" fill="currentColor" stroke="none"/>
      <circle cx="27.5" cy="10" r="2.2" fill="currentColor" stroke="none"/>
      <circle cx="34.5" cy="15" r="2.2" fill="currentColor" stroke="none"/>
    </g>
  </symbol>

  <!-- 11. 예언자의 거울 — 수정구 -->
  <symbol id="emblem-oracles-mirror" viewBox="0 0 48 48">
    <g fill="none" stroke="currentColor" stroke-width="2.5" stroke-linecap="round" stroke-linejoin="round">
      <circle cx="24" cy="19" r="12.5"/>
      <path d="M17.5 19 c0 -3.6 2.9 -6.5 6.5 -6.5"/>
      <path d="M16 33.5 H32 L35.5 41 H12.5 Z"/>
      <path d="M30.5 9.5 l0.9 2.1 2.1 0.9 -2.1 0.9 -0.9 2.1 -0.9 -2.1 -2.1 -0.9 2.1 -0.9 Z" fill="currentColor" stroke="none"/>
    </g>
  </symbol>

  <!-- 12. 모닥불 — 불꽃과 장작 -->
  <symbol id="emblem-campfire" viewBox="0 0 48 48">
    <g fill="none" stroke="currentColor" stroke-width="2.5" stroke-linecap="round" stroke-linejoin="round">
      <path d="M24 5 c5.5 6.5 9.5 10.5 9.5 16.5 a9.5 9.5 0 0 1 -19 0 C14.5 15.5 18.5 11.5 24 5 Z"/>
      <path d="M24 15.5 c2.7 3.2 4.6 5.3 4.6 8.2 a4.6 4.6 0 0 1 -9.2 0 c0 -2.9 1.9 -5 4.6 -8.2 Z"/>
      <path d="M14 36.5 H36.5"/>
      <circle cx="11.5" cy="36.5" r="2"/>
      <path d="M9.5 41.5 H34"/>
      <circle cx="36.5" cy="41.5" r="2"/>
    </g>
  </symbol>

  <!-- 방랑자의 일지 — 나침반 -->
  <symbol id="emblem-wanderers-journal" viewBox="0 0 48 48">
    <g fill="none" stroke="currentColor" stroke-width="2.5" stroke-linecap="round" stroke-linejoin="round">
      <circle cx="24" cy="24" r="16.5"/>
      <path d="M32.5 15.5 L28.2 28.2 L15.5 32.5 L19.8 19.8 Z"/>
      <path d="M24 9.5 V12.5 M24 35.5 V38.5 M9.5 24 H12.5 M35.5 24 H38.5"/>
    </g>
  </symbol>

  <!-- 교차로 — 사이트 마크 (컴퍼스 로즈) -->
  <symbol id="emblem-crossroads" viewBox="0 0 48 48">
    <g fill="none" stroke="currentColor" stroke-width="2.5" stroke-linecap="round" stroke-linejoin="round">
      <path d="M24 5 L27.6 20.4 L43 24 L27.6 27.6 L24 43 L20.4 27.6 L5 24 L20.4 20.4 Z"/>
      <circle cx="33" cy="15" r="1.6" fill="currentColor" stroke="none"/>
      <circle cx="33" cy="33" r="1.6" fill="currentColor" stroke="none"/>
      <circle cx="15" cy="33" r="1.6" fill="currentColor" stroke="none"/>
      <circle cx="15" cy="15" r="1.6" fill="currentColor" stroke="none"/>
    </g>
  </symbol>
</svg>
